<svg xmlns="http://www.w3.org/2000/svg" viewBox="0 0 320 76" fill="none">
  <defs>
    <path id="seed-compact-dark" d="M0 -3.8C2.25 -3.8 4 -1.95 4 0.2C4 2.55 2.4 4.2 0 6.8C-2.4 4.2 -4 2.55 -4 0.2C-4 -1.95 -2.25 -3.8 0 -3.8Z"/>
  </defs>
  <g transform="translate(4 2) scale(0.96)">
    <path fill="#FFD5A0" d="M35.95 18.8C29.85 18.8 24.9 13.85 24.9 7.75C31 7.75 35.95 12.7 35.95 18.8Z"/>
    <path fill="#FFD5A0" d="M36.05 18.8C42.15 18.8 47.1 13.85 47.1 7.75C41 7.75 36.05 12.7 36.05 18.8Z"/>
    <path d="M27.4 22.4H44.6C51 22.4 56.2 27.6 56.2 34V49.9C56.2 56.3 51 61.5 44.6 61.5H27.4C21 61.5 15.8 56.3 15.8 49.9V34C15.8 27.6 21 22.4 27.4 22.4Z" stroke="#FFD5A0" stroke-width="5.4" stroke-linejoin="round"/>
    <g fill="#FFD5A0">
      <use href="#seed-compact-dark" transform="translate(28.8 34.6) rotate(-8)"/>
      <use href="#seed-compact-dark" transform="translate(37.1 34.6) rotate(2)"/>
      <use href="#seed-compact-dark" transform="translate(45.3 34.6) rotate(10)"/>
      <use href="#seed-compact-dark" transform="translate(32.9 45.2) rotate(-4)"/>
      <use href="#seed-compact-dark" transform="translate(41.1 45.2) rotate(6)"/>
    </g>
  </g>
  <text x="78" y="45" fill="#FFD5A0" font-family="'Exo 2', Exo2, Arial, sans-serif" font-size="30" font-weight="900" letter-spacing="-1.95">KLUBNIKA PROJECT</text>
</svg>
